# xmcd
#
# Track frame offsets:
# 150
# 20865
# 39127
# 62302
# 78742
# 101052
# 123862
# 145880
# 165097
# 187830
# 211312
#
# Disc length: 3165 seconds
#
#
# Revision: 0
# Processed by: cddbd v1.5.1PL2 Copyright (c) Steve Scherf et al.
# Submitted via: FreeRIP 2.945 
#
DISCID=850c5b0b
DTITLE=Ana Paula Lopes - Meu 
DYEAR=2005
DGENRE=MPB
TTITLE0=Meu
TTITLE1=Chovendo Na Roseira
TTITLE2=Sereia, Amor d'Água
TTITLE3=Água de Beber
TTITLE4=A Mais Bonita
TTITLE5=A História de Lilly Braun
TTITLE6=Águas de Março
TTITLE7=O Morro Não Tem Vez
TTITLE8=Esperança Perdida
TTITLE9=What's New?
TTITLE10=Lisa
EXTD=
EXTT0=
EXTT1=
EXTT2=
EXTT3=
EXTT4=
EXTT5=
EXTT6=
EXTT7=
EXTT8=
EXTT9=
EXTT10=
PLAYORDER=
